<svg xmlns="http://www.w3.org/2000/svg" xmlns:xlink="http://www.w3.org/1999/xlink" width="185" height="185" viewBox="0 0 185 185">
  <defs>
    <clipPath id="clip-white_Logo">
      <rect width="185" height="185"/>
    </clipPath>
  </defs>
  <g id="white_Logo" data-name="white Logo" clip-path="url(#clip-white_Logo)">
    <g id="Group_12" data-name="Group 12" transform="translate(2.877 2.424)">
      <path id="Path_69" data-name="Path 69" d="M7.7,114.456l-1.189-1.189-.286,1.081.733.733.063-.063.063.063.626-.626h0Zm-2.145,3.4-1.68-1.68,1.627-1.627a1.407,1.407,0,0,0,.366-.59,1.283,1.283,0,0,0,0-.688,2.974,2.974,0,0,0-.635-1.287l-.143-.143a1.265,1.265,0,0,0-1.341-.268,1.84,1.84,0,0,0-.483.358,1.369,1.369,0,0,0-.456,1.2,1.875,1.875,0,0,0,.447,1.117l.527.6-.617.617-.724-.724-.1-.1L2.2,114.59l-.17.018-.116.071-.188.3a3.31,3.31,0,0,0-.17,1.734l.054.42a.8.8,0,0,0,.206.474l.116.116.206.054.152-.045.134-.134.7-.7,1.618,1.618.063-.063.063.063.688-.688h0Zm-1.394-3.459-.1-.071-.277-.375-.188-.456a1.569,1.569,0,0,1-.054-.474.576.576,0,0,1,.161-.358.688.688,0,0,1,.545-.259,1.3,1.3,0,0,1,.724.4l.152.161.063.223-.018.179-.072.143-.93.93v-.063H4.165Zm5.676,2.243-2.476-2.476-.688.688.733.733L2.172,120.82l.206,1.3,5.783-5.783.921.921.063-.063.063.063.626-.626h0Zm2.065,2.065L9.43,116.226l-.688.688.733.733-5.238,5.238.206,1.3,5.783-5.783.921.921.063-.063.063.063.626-.626h0Zm4.326,4.326-4.612-4.612-.688.688,2.19,2.181-1.582,1.582-.956-.956a.347.347,0,0,0-.563-.009l-.268.384-.179.518-.206.733-.286,1.394-.143.724-.17.939-.125.8-.089.9.947.25a6.14,6.14,0,0,1-.134-1.117l.063-1.117.179-1.073a3.929,3.929,0,0,1,.268-.912,4.737,4.737,0,0,0,3.209-1.3l.411-.5.349-.518,1.654,1.654.063-.063.063.063.626-.626h0Zm4.8,4.8-5.256-5.256-.688.688,3.54,3.54-.983.983L15.3,125.441l-.152-.152-.241-.071-.3-.036-.322.036-.313.071a1.915,1.915,0,0,0-.787.518,3.9,3.9,0,0,0-.7,1.082,7.838,7.838,0,0,0-.536,1.707l-.268,1.323a1.009,1.009,0,0,0,.063.688l.778.277-.036-1,.036-.635a4.737,4.737,0,0,1,.358-1.493,2.787,2.787,0,0,1,.3-.563,3.555,3.555,0,0,1,.375-.447l.34-.259.358-.125H14.6a1.191,1.191,0,0,1,.3.2l1.984,1.984-3.54,3.54.241,1.225,5.783-5.783.921.921.063-.063.063.063.626-.626h0Zm9.716,9.26v-.429l-.027-.6-.17-1.323a1.917,1.917,0,0,0-.054-.331c-.027-.134-.054-.241-.063-.34a8.927,8.927,0,0,0-.6-1.877,3.437,3.437,0,0,0-.617-.9,2.811,2.811,0,0,0-.635-.492,3.422,3.422,0,0,0-.652-.241,1.87,1.87,0,0,0-.8.08,2.25,2.25,0,0,0-.724.518l-.241.34-.152.465-.107.447-.036.277-.733-.733-.688.688.617.617-5.238,5.238.206,1.3,5.783-5.783.867.867.688-.679-1.019-1.019.045-.17.08-.366.08-.366.116-.188a1.15,1.15,0,0,1,.956-.375.949.949,0,0,1,.563.1,1.932,1.932,0,0,1,.5.375,3.793,3.793,0,0,1,.769,1.2,8.474,8.474,0,0,1,.67,3.173,1.772,1.772,0,0,1-.08.679l.456.1.215-.215h0Zm1.806,2.261-5.336-5.327-.688.679,3.611,3.611-1.457,1.457-2.994-2.994-.072-.072a.454.454,0,0,0-.474.089l-.134.107-.161.8-.089.375-.089.617-.107.974.027.17.1.1a.281.281,0,0,0,.447-.009l1.162-1.162,1.689,1.689L24.9,143.541l.17,1.3,5.783-5.783.921.921.063-.063.063.063.626-.626h0ZM37.3,144.1l-4.961-4.961-.688.688,3.209,3.209-2.61,2.6-.25.036a1.788,1.788,0,0,1-.59-.036,2.8,2.8,0,0,1-.813-.206,2.074,2.074,0,0,1-.527-.366,2.015,2.015,0,0,1-.366-.492,1.382,1.382,0,0,1-.072-.429,1.483,1.483,0,0,1,.447-.876,1.311,1.311,0,0,1,.411-.268,1.239,1.239,0,0,1,.241-.071,1.916,1.916,0,0,1,1.466.509,1.328,1.328,0,0,1,.375.259l.259.259.384.429.277-1.189-.411-.411a6.357,6.357,0,0,0-1.207-.813,1.738,1.738,0,0,0-2.065.331,3.463,3.463,0,0,0-.617.831l-.143.509a2.423,2.423,0,0,0-.1.456,2.235,2.235,0,0,0,.652,1.761l.42.322.661.277.465.152.1.027-1.618,1.618.206,1.3,5.783-5.783.939.938.063-.063.063.063.626-.626h0Zm2.092,2.092-2.476-2.476-.688.688.733.733-5.238,5.238.206,1.3,5.783-5.783.921.921.063-.063.063.063.626-.626h0Zm1.984-3.084-.027-.215a1.848,1.848,0,0,0-.617-.974.9.9,0,0,0-.447-.25,1.216,1.216,0,0,0-.527-.072,2.233,2.233,0,0,0-1.618,1.546,3.776,3.776,0,0,0-.188,1.2v.51l.054.179.286.286.134-.081V145l.107-.67a2.2,2.2,0,0,1,.393-1.117l.241-.241.286-.286.277-.134a.873.873,0,0,1,.4,0,.916.916,0,0,1,.358.232l.143.152.125.215.1.215.08.116.215-.027v-.072h.179l.027-.277h0Zm3.674,8.742-5.881-5.881-.688.679,4.29,4.29-2.53,2.53h-.313l-.652-.072a3.088,3.088,0,0,1-.492-.107,2.946,2.946,0,0,1-.661-.25,2.245,2.245,0,0,1-.447-.349l-.456-.456-.188-.34a.671.671,0,0,1-.018-.393.957.957,0,0,1,.232-.322l.2-.2.322-.125.366-.027.438.027a1.258,1.258,0,0,1,.313.045c.1.018.2.036.277.054l.277.107,1.216,1.216L41.1,151.2l-3.423-3.423-.411,1.037,1.082,1.126a1.041,1.041,0,0,0-.59-.036,1.426,1.426,0,0,0-.778.277l-.215.215a1.691,1.691,0,0,0-.366,1.654,3.188,3.188,0,0,0,.849,1.573,2.425,2.425,0,0,0,.518.375l.8.295.554.143.134.036-1.7,1.7.152,1.269,5.783-5.783.831.831.063-.063.063.063.626-.626h0Zm5.1,5.1-5.336-5.336-.688.688,3.611,3.611-1.457,1.457-2.994-2.994-.072-.072a.454.454,0,0,0-.474.089l-.134.107-.161.8-.089.375-.089.617-.107.974.027.17.1.1a.281.281,0,0,0,.447-.009l1.162-1.162,1.689,1.689L42.5,161.141l.17,1.3,5.783-5.783.921.921.063-.063.063.063.626-.626h0ZM61.405,168.2l-3.227-3.227-.3,1.073,1.251,1.251-1.966,1.966-.384-.1-.375-.179-.2-.1-.143-.1-.134-.134-.143-.143-.277-.277-.179-.322-.134-.322-.045-.313h.206l.384-.009a1.31,1.31,0,0,0,.483-.241l.277-.277a1.886,1.886,0,0,0,.465-.778,2.94,2.94,0,0,0,.018-1.94,1.226,1.226,0,0,0-.358-.626l-.179-.179L56.1,163c-.063-.036-.152-.08-.259-.134a2.559,2.559,0,0,0-.331-.134l-.241-.072-.349-.089-.277,1.117a1.228,1.228,0,0,1,.849.188l.349.179.277.232a1.181,1.181,0,0,1,.358.813.73.73,0,0,1-.063.456,1.862,1.862,0,0,1-.322.411.743.743,0,0,1-.509.215A2.077,2.077,0,0,1,54,165.431l-.268-.268-.223,1.135.25.375.393.277.429.152a1.534,1.534,0,0,1-.125.661,2.077,2.077,0,0,1-.438.6l-.232.206a1.89,1.89,0,0,1-.706.241,1.2,1.2,0,0,1-.965-.4,1.886,1.886,0,0,1-.536-1.108,3.542,3.542,0,0,1,.206-1.591,4.752,4.752,0,0,1,1.037-1.922l-.635-.206-.322.42a4.738,4.738,0,0,0-.545,1.171,9.873,9.873,0,0,0-.518,2.181,2.489,2.489,0,0,0,.635,2.029l.429.34a2.144,2.144,0,0,0,1.189.3,2.119,2.119,0,0,0,1.3-.626l.241-.411.241-.742.08-.42.107-.447h-.17l.045.5.063.375.116.5a1.511,1.511,0,0,0,.188.483,1.945,1.945,0,0,0,.3.393l.232.206.268.116.232.08h.063l-2.458,2.476.17,1.3,5.783-5.783.8.8.063-.063.063.063.626-.626h0Zm2.208,2.208-2.476-2.476-.688.688.733.733-5.238,5.238.206,1.3,5.783-5.783.921.921.063-.063.063.063.626-.626h0Zm4.871,4.871-5.166-5.166-.688.688,1.421,1.421-.054.241a1.136,1.136,0,0,1-.1.2c0,.036-.054.1-.161.206l-.277.3-.277.232a1.062,1.062,0,0,1-.894.125l-.411-.215-.268-.268-.215-.215a3.774,3.774,0,0,0-.76,1.073,5.067,5.067,0,0,0-.223,1.153,2.657,2.657,0,0,0,.2,1.082,3.023,3.023,0,0,0,.617.876l.188.17a.541.541,0,0,1,.188.143l.206.107.268.1a1.638,1.638,0,0,0,.5.116H62.9L60.967,179.6l.17,1.3,5.783-5.783.8.8.063-.063.063.063.626-.626h0Zm-4.889,1.4-.5-.027-.42-.08-.34-.116-.313-.17a1.7,1.7,0,0,1-.268-.214,1.824,1.824,0,0,1-.67-1.439v-.152l.134-.411.384.313.25.107.268.116a1.167,1.167,0,0,0,.572.045,2.062,2.062,0,0,0,1.162-.617l.277-.375.215-.5.143-.429.027-.045,1.68,1.68-2.3,2.3-.313.027h0Zm7.052.76-2.476-2.476-.688.688.733.733-5.238,5.238.206,1.3,5.783-5.783.921.921.063-.063.063.063.626-.626h0Zm-.921-1.645.1-.411.072-.411.08-.375.063-.393.215-1.153.152-.974a.219.219,0,0,0-.071-.143l-.054-.089-.2-.277-.25-.25-1.368-1.368-.447,1.287,1.153,1.153.206.3a.607.607,0,0,1,.036.3l-.3,2.637-.089.42.384.384v-.2l.152.107.063-.063.107-.492h0Zm5.863,6.579-5.166-5.166-.688.688,1.359,1.359-1.564,1.564-.706-.706c-.188-.188-.349-.206-.483-.071a2.348,2.348,0,0,0-.366,1.421l.054.858a1.119,1.119,0,0,0,.241.5l.179.107.215.045.179-.036a.582.582,0,0,0,.206-.134l2.8-2.8,1.332,1.332-5.22,5.22.17,1.3,5.783-5.783.921.921.063-.063.063.063.626-.626h0Z" transform="translate(0.951 -12.978)" fill="#fff"/>
      <path id="Path_70" data-name="Path 70" d="M68.05,188.044l-.2-1.52.027-.027,5.157-5.157-1.207-1.207L69.1,182.869a.582.582,0,0,1-.241.152l-.206.045L68.389,183l-.179-.107a1.222,1.222,0,0,1-.277-.554l-.063-.876a2.411,2.411,0,0,1,.393-1.493c.1-.1.313-.223.608.072l.644.644,1.43-1.439-1.359-1.359h0l-.635-.626-5.846,5.846-.241-1.528.036-.036,5.175-5.175-.733-.733h0l-.429-.429-5.855,5.846-.2-1.519.027-.027,1.788-1.788h-.116a1.585,1.585,0,0,1-.527-.125l-.268-.1-.232-.125a.536.536,0,0,0-.161-.125l-.027-.018-.188-.17a2.916,2.916,0,0,1-.644-.9,2.833,2.833,0,0,1-.206-1.117,5.263,5.263,0,0,1,.223-1.18,4.132,4.132,0,0,1,.787-1.117l.063-.063.536.536.393.206a.987.987,0,0,0,.813-.125l.268-.224.268-.295a.651.651,0,0,0,.134-.161v-.027H63.8a.488.488,0,0,0,.08-.161l.045-.206-2.02-2.02-5.846,5.846-.241-1.528.036-.036,5.175-5.175L59.826,168.1l-5.846,5.846-.2-1.52.027-.027,2.36-2.36-.152-.054-.295-.134-.232-.206a1.813,1.813,0,0,1-.518-.921l-.107-.438-.215.67-.259.447a2.036,2.036,0,0,1-2.592.34l-.447-.34a2.613,2.613,0,0,1-.67-2.109,10.685,10.685,0,0,1,.527-2.2,4.885,4.885,0,0,1,.554-1.189l.366-.483.84.268-.107.107a4.747,4.747,0,0,0-1.019,1.886,3.522,3.522,0,0,0-.206,1.555,1.838,1.838,0,0,0,.509,1.055,1.106,1.106,0,0,0,.894.375,2.4,2.4,0,0,0,.67-.232l.215-.2a2.242,2.242,0,0,0,.42-.563,1.3,1.3,0,0,0,.116-.563l-.393-.143-.411-.3-.268-.4.259-1.332.384.384a2,2,0,0,0,1.511.724.709.709,0,0,0,.447-.188,1.807,1.807,0,0,0,.313-.393.714.714,0,0,0,.054-.4,1.169,1.169,0,0,0-.34-.778l-.259-.214-.331-.17a1.217,1.217,0,0,0-.787-.179l-.143.027.331-1.341.429.107.241.072a2.621,2.621,0,0,1,.349.143,2.476,2.476,0,0,0,.259.134l.358.232.2.188a1.243,1.243,0,0,1,.384.67,3.071,3.071,0,0,1-.018,1.984,1.971,1.971,0,0,1-.492.813l-.277.277a1.3,1.3,0,0,1-.518.259h-.018l-.384.027h-.107l.027.2.125.3.17.3.545.545.134.089.554.268.322.08,1.868-1.868-1.225-1.224.358-1.269,3.405,3.4h0l7.472,7.472v-.063l.322-2.628a.527.527,0,0,0-.027-.259l-.2-.286-1.18-1.18.509-1.475,1.725,1.725.206.295.054.089a.267.267,0,0,1,.089.2l-.161.983-.215,1.153-.063.393-.08.375-.072.4-.215.93-.018.018,6.024,6.024-.751.751-.063-.062-.063.063-.921-.93-5.846,5.855Zm-.009-1.457.143,1.073,5.72-5.72.921.93.063-.063.063.063.5-.5-4.809-4.809-.554.554,1.126,1.126-1.689,1.689-.769-.769c-.215-.215-.313-.116-.358-.071a2.27,2.27,0,0,0-.34,1.367l.054.849a1.029,1.029,0,0,0,.215.447l.152.089.188.045.161-.036a.5.5,0,0,0,.161-.107l2.86-2.86,1.457,1.457-.063.063L68.05,186.6Zm-4.97-4.952.17,1.09,5.72-5.72.76.76.554-.554-.8-.8v.241l-.572-.572.045-.2-.474-.474-.554.554.42.42-.063.063-5.2,5.2Zm-2.011-2.029.143,1.073,5.72-5.72.554.554.554-.554L63.6,170.525l-.554.554,1.1,1.1-.063.286a.558.558,0,0,1-.1.206.539.539,0,0,1-.179.232l-.277.3-.286.241a1.209,1.209,0,0,1-.983.143l-.447-.232-.42-.42a3.578,3.578,0,0,0-.679.983,5.215,5.215,0,0,0-.215,1.126,2.589,2.589,0,0,0,.188,1.037,2.815,2.815,0,0,0,.6.84l.179.152a.776.776,0,0,1,.2.152l.2.1.25.089a1.831,1.831,0,0,0,.474.116l.536.018L61.069,179.6Zm8.885-1.743.063.063.5-.5-.1-.1-.554.554.045.045.063-.063Zm-.813-2.056.393.384.188-.84.072-.4.08-.375.063-.393.215-1.153.152-.974a.528.528,0,0,0-.045-.071l-.018-.018-.054-.089-.2-.268L68.47,170.1l-.375,1.1,1.117,1.117.215.313a.6.6,0,0,1,.045.366l-.3,2.628Zm-1.537-.17.125.125.063-.063.063.063.5-.5-.188-.188-.554.554ZM56.028,174.6l.17,1.09,5.72-5.72.7.7.554-.554-1.8-1.8-.554.554.465.465-.063.063-5.2,5.2Zm-2.056-2.074.143,1.073,5.72-5.72.6.6.554-.554-2.8-2.8-.241.867,1.278,1.278-2.065,2.065-.438-.107-.581-.277-.152-.107-.581-.581-.179-.322-.134-.331-.018-.134-.089.393.054.358.116.5a1.741,1.741,0,0,0,.179.465,1.8,1.8,0,0,0,.295.375l.215.188.25.116.268.089.17.036-2.547,2.547Zm8.777-1.734.1.1.063-.063.063.063.5-.5-.161-.161-.554.554Zm-10.538-7.124-.286.375a4.312,4.312,0,0,0-.527,1.135,10.324,10.324,0,0,0-.518,2.163,2.463,2.463,0,0,0,.608,1.966l.42.331a1.858,1.858,0,0,0,2.36-.3l.232-.4.232-.724.063-.34-.054-.59h.295l-.018-.107.313.018.358-.027a1.016,1.016,0,0,0,.429-.215l.277-.277a1.877,1.877,0,0,0,.447-.742,2.869,2.869,0,0,0,.018-1.877,1.12,1.12,0,0,0-.34-.59l-.179-.179-.331-.215-.25-.125a2.067,2.067,0,0,0-.313-.125l-.241-.072-.25-.063-.223.9a1.579,1.579,0,0,1,.778.215l.349.179.295.241a1.305,1.305,0,0,1,.393.894.821.821,0,0,1-.072.492,2.138,2.138,0,0,1-.34.429.86.86,0,0,1-.563.241,2.143,2.143,0,0,1-1.645-.778l-.143-.143-.179.93.223.331.366.268.474.17v.063a1.633,1.633,0,0,1-.134.706,2.107,2.107,0,0,1-.456.617l-.232.215a2.324,2.324,0,0,1-.751.268,1.321,1.321,0,0,1-1.037-.429,1.937,1.937,0,0,1-.563-1.153,3.621,3.621,0,0,1,.215-1.636,5.3,5.3,0,0,1,.956-1.859l-.438-.143ZM60.7,168.63l.063.063.5-.5-.134-.134-.554.554.08.08.063-.063Zm2.887,8.143h0l-.5-.027-.429-.089-.349-.125-.322-.17a1.23,1.23,0,0,1-.286-.232,1.91,1.91,0,0,1-.7-1.511v-.152l.17-.554.483.384.509.223a1.2,1.2,0,0,0,.527.045,2.041,2.041,0,0,0,1.117-.59l.268-.366.206-.483.17-.483.054-.107,1.832,1.832-.063.063-2.315,2.315-.349.027Zm-2.333-2.556-.08.277v.134a1.732,1.732,0,0,0,.635,1.368,1.012,1.012,0,0,0,.241.2l.313.17.322.116.411.081.483.018.277-.018,2.208-2.208-1.519-1.52-.116.349-.215.51-.286.393a2.188,2.188,0,0,1-1.225.644,1.247,1.247,0,0,1-.617-.054l-.545-.241-.277-.224Zm-18.636-11.6-.2-1.519.027-.027,3.021-3.021-1.564-1.564-1.1,1.1a.418.418,0,0,1-.295.143h0a.388.388,0,0,1-.277-.134l-.116-.116-.027-.206.107-.983.089-.617.089-.384.161-.831.152-.125a.539.539,0,0,1,.554-.107h.027l3.012,3.021,1.323-1.323L44,152.309h0l-.536-.536-5.855,5.854-.179-1.493,1.618-1.618-.536-.143-.8-.295a2.521,2.521,0,0,1-.554-.393,3.272,3.272,0,0,1-.876-1.609,1.806,1.806,0,0,1,.393-1.734l.215-.214a1.537,1.537,0,0,1,.831-.3.809.809,0,0,1,.331-.018l-.921-.956.483-1.216,3.557,3.557-.518,1.251-1.3-1.3-.259-.1L38.831,151a1.764,1.764,0,0,0-.3-.036l-.438-.027-.34.027-.286.107-.179.179a.77.77,0,0,0-.206.295.567.567,0,0,0,.018.34l.179.3.447.447a1.84,1.84,0,0,0,.429.331,2.647,2.647,0,0,0,.644.241,3,3,0,0,0,.483.107l.652.071H40.2l2.44-2.44-4.916-4.916-5.846,5.846-.241-1.528.036-.036,5.175-5.175-1.216-1.216-5.846,5.846-.241-1.52L31.09,146.7l-.42-.143-.688-.286-.42-.322a2.342,2.342,0,0,1-.688-1.841,2.109,2.109,0,0,1,.107-.483l.143-.5a3.27,3.27,0,0,1,.644-.867,1.82,1.82,0,0,1,2.163-.349,7.134,7.134,0,0,1,1.225.822l.447.447-.3,1.3,1.448-1.448-3.209-3.209h0l-.644-.644-5.846,5.846-.2-1.52.027-.027,3.021-3.021L26.335,138.9l-1.1,1.1a.418.418,0,0,1-.295.143h0a.388.388,0,0,1-.277-.134l-.116-.116-.027-.206h0l.107-.983.089-.617.089-.384.161-.84.152-.125a.539.539,0,0,1,.554-.107H25.7l.089.1,2.923,2.923,1.323-1.323-4.183-4.183-5.846,5.846-.241-1.528.036-.036,5.175-5.175-.617-.608.813-.813.67.67v-.1l.125-.456.17-.5.241-.34a2.34,2.34,0,0,1,.76-.545,1.785,1.785,0,0,1,.831-.089,3.147,3.147,0,0,1,.679.25,3.344,3.344,0,0,1,.661.509,3.574,3.574,0,0,1,.626.921,8.561,8.561,0,0,1,.608,1.895c.018.1.036.215.063.34.027.143.045.25.054.34l.17,1.323.027.608v.474l-.188.188,7.2,7.2v-.2a3.945,3.945,0,0,1,.188-1.225,2.174,2.174,0,0,1,.5-.894,2.3,2.3,0,0,1,1.2-.715,1.236,1.236,0,0,1,.572.072.938.938,0,0,1,.474.268,1.93,1.93,0,0,1,.635,1.019l.027.232-.036.384h-.17v.045l-.349.036L40.8,143.4l-.107-.232-.116-.2-.143-.143a.609.609,0,0,0-.67-.206l-.241.116-.518.518a2.107,2.107,0,0,0-.375,1.073l-.1.67v.179l.983.992h0L50.271,156.93l-.751.751-.063-.063-.063.063-.921-.921-5.846,5.855Zm-.009-1.457.143,1.073,5.72-5.72.921.921.063-.063.063.063.5-.5-4.979-4.979-.554.554,3.388,3.388-1.582,1.582-.063-.063-3.048-3.048a.385.385,0,0,0-.366.072l-.107.089-.152.778-.089.375-.08.608-.107.965.018.125.072.072a.232.232,0,0,0,.152.08h0a.245.245,0,0,0,.17-.089l1.225-1.225,1.823,1.823-.063.063-3.057,3.057Zm-4.988-4.979.125,1.046,5.72-5.72.661.661.554-.554-5.3-5.3-.554.554,4.058,4.058-.063.063-2.556,2.556h-.349l-.661-.071a3.27,3.27,0,0,1-.509-.107,3.1,3.1,0,0,1-.679-.259,2.143,2.143,0,0,1-.465-.367l-.474-.474-.188-.34a.727.727,0,0,1-.018-.474,1.047,1.047,0,0,1,.25-.358l.223-.214.34-.125.366-.027.447.027a1.33,1.33,0,0,1,.322.045l.277.054.331.134L40.6,152.1l.366-.894-3.28-3.28-.34.858,1.037,1.09-.089.143a.937.937,0,0,0-.536-.036,1.474,1.474,0,0,0-.751.259l-.206.206a1.6,1.6,0,0,0-.34,1.573,3.116,3.116,0,0,0,.822,1.528,2,2,0,0,0,.5.357l.787.286.831.223-1.77,1.77Zm6.73-3.906.063.063.5-.5-.1-.1-.554.554.045.045.063-.063Zm-12.531-1.886.17,1.09,5.72-5.72.76.76.554-.554-.617-.617-.134.08-.358-.375-.063-.206v-.063l-.563-.563-.554.554.349.349-.063.063-5.2,5.2Zm-2.1-2.1.17,1.09,5.72-5.72.617.608.554-.554-4.237-4.228-.554.554,2.994,2.994-.063.063L32.3,145.721l-.277.045a1.937,1.937,0,0,1-.617-.036,3.192,3.192,0,0,1-.831-.206,2.063,2.063,0,0,1-.554-.384,2.385,2.385,0,0,1-.384-.509,1.335,1.335,0,0,1-.08-.483,1.584,1.584,0,0,1,.474-.93,1.379,1.379,0,0,1,.438-.286,1.445,1.445,0,0,1,.259-.08,2.052,2.052,0,0,1,1.528.518,1.389,1.389,0,0,1,.393.268l.054.054c.072.08.143.143.2.2l.277.3.223-.974-.375-.375a7.147,7.147,0,0,0-1.171-.8,1.644,1.644,0,0,0-1.966.313,3.3,3.3,0,0,0-.6.813l-.143.492a2.393,2.393,0,0,0-.1.438,2.146,2.146,0,0,0,.626,1.689l.4.3.644.268.554.179.152.036-1.7,1.7Zm8.983-1.671.063.063.5-.5-.1-.1-.554.554.045.045.063-.063ZM30.885,143h-.143a1.361,1.361,0,0,0-.215.063,1.132,1.132,0,0,0-.375.241,1.382,1.382,0,0,0-.42.822,1.223,1.223,0,0,0,.072.393,2.324,2.324,0,0,0,.349.447,1.688,1.688,0,0,0,.5.349,2.932,2.932,0,0,0,.787.2,1.877,1.877,0,0,0,.563.036l.223-.036,1.019-1.019-.465-.518c-.054-.054-.125-.116-.2-.2l-.054-.054a1.388,1.388,0,0,0-.358-.241h-.018a1.854,1.854,0,0,0-1.26-.5Zm7.16,1.689.313.313v-.027l.1-.679a2.208,2.208,0,0,1,.42-1.171l.554-.545.277-.134a1.149,1.149,0,0,1,.456-.018,1.075,1.075,0,0,1,.4.259l.161.17.125.215.107.223.045.054h.089v-.1h.188l.018-.179-.027-.206a1.816,1.816,0,0,0-.59-.921.821.821,0,0,0-.4-.223,1.238,1.238,0,0,0-.5-.072,2.072,2.072,0,0,0-1.09.67,2.138,2.138,0,0,0-.456.822,3.867,3.867,0,0,0-.179,1.171v.375ZM25.03,143.558l.143,1.073,5.72-5.72.769.769.554-.554-1.752-1.752-.518-.107.054-.107a1.066,1.066,0,0,0,.054-.2L27.39,134.3l-.554.554,3.45,3.45L28.7,139.885l-.063-.063-3.048-3.048a.385.385,0,0,0-.366.071l-.107.089-.152.778-.089.375-.08.608-.107.965.018.125.072.071a.2.2,0,0,0,.322-.009l1.225-1.233,1.823,1.823-.063.063-3.057,3.057Zm11.584.956.063.063.5-.5-.259-.259-.554.554.2.2.063-.063Zm-4.836-4.71.027.027.063-.063.063.063.5-.5-.089-.089-.554.554ZM19.944,138.5l.17,1.09,5.72-5.72.7.7.554-.554-.822-.822.063-.223.179-.76.116-.188a1.239,1.239,0,0,1,1.037-.42,1.024,1.024,0,0,1,.6.107,2.258,2.258,0,0,1,.527.384,3.76,3.76,0,0,1,.787,1.234,8.619,8.619,0,0,1,.679,3.2,2.461,2.461,0,0,1-.018.384l.286.286.143-.143v-.393l-.027-.6-.17-1.314a1.838,1.838,0,0,0-.054-.322c-.027-.134-.054-.25-.063-.349a8.85,8.85,0,0,0-.59-1.85,3.3,3.3,0,0,0-.6-.876,3.192,3.192,0,0,0-.617-.483,2.679,2.679,0,0,0-.626-.232,1.655,1.655,0,0,0-.742.08,2.111,2.111,0,0,0-.688.5l-.223.313-.152.456-.107.438-.054.447-.8-.8-.554.554.617.608-.063.063-5.2,5.2ZM30.2,137.132h.027l-.027-.018Zm-2.681-2.959,2.556,2.556v-.215a8.64,8.64,0,0,0-.661-3.137,3.625,3.625,0,0,0-.751-1.171,1.777,1.777,0,0,0-.483-.358.911.911,0,0,0-.509-.089,1.057,1.057,0,0,0-.9.349l-.1.161-.2.849,1.046,1.046h0Zm-.849.518.045.045.554-.554-.045-.045Zm-13.139-1.2-.286-1.439.036-.036,3.477-3.477-1.922-1.922a.6.6,0,0,0-.259-.152h-.313l-.331.1-.322.25a2.847,2.847,0,0,0-.358.429,3.108,3.108,0,0,0-.295.545,4.826,4.826,0,0,0-.358,1.466l-.036.635.045,1.117-.939-.331-.018-.027a1.136,1.136,0,0,1-.072-.751l.268-1.323a7.474,7.474,0,0,1,.545-1.734,4.022,4.022,0,0,1,.715-1.108,1.955,1.955,0,0,1,.822-.545l.313-.071.34-.036.322.036.277.08.17.17,2.279,2.279.858-.858-4.666-4.666-.286.429-.411.509A4.763,4.763,0,0,1,9.907,124.4a3.925,3.925,0,0,0-.232.84L9.5,126.308l-.054,1.108a6.958,6.958,0,0,0,.134,1.1l.027.134-1.153-.3.089-.974.125-.8.17-.939.438-2.118.206-.742.2-.545.268-.384a.45.45,0,0,1,.706,0l.894.894L13,121.284l-2.753-2.753L4.4,124.377l-.241-1.528.036-.036,5.175-5.175-.733-.733h0l-.447-.447L2.345,122.3,2.1,120.775l.036-.036,2.36-2.36-1.35-1.35-.8.8-.179.054-.25-.071-.134-.134a.871.871,0,0,1-.223-.518l-.054-.42a3.306,3.306,0,0,1,.179-1.779l.223-.349.152-.08.188-.027.188.054.116.116.661.661.492-.492L3.23,114.3a1.943,1.943,0,0,1-.465-1.162,1.443,1.443,0,0,1,.483-1.278,1.569,1.569,0,0,1,.509-.375,1.338,1.338,0,0,1,1.439.277l.152.152a2.991,2.991,0,0,1,.661,1.323,1.452,1.452,0,0,1,0,.733,1.537,1.537,0,0,1-.384.635l-1.564,1.564,1.35,1.35,1.94-1.94-.733-.733.027-.027-.456-.456.34-1.278,1.359,1.359-.027.027,13.354,13.354-.751.751-.063-.063-.063.063-.921-.921-5.837,5.837Zm-.089-1.376.2,1.01,5.729-5.729.93.921.063-.063.063.063.5-.5-4.675-4.675-.554.554,3.084,3.084-1.108,1.108-.063-.063-2.485-2.485-.223-.063-.286-.027-.3.036-.3.072a1.746,1.746,0,0,0-.742.5,3.833,3.833,0,0,0-.688,1.064,7.1,7.1,0,0,0-.527,1.689l-.268,1.323a.936.936,0,0,0,.036.6l.626.223-.036-.867.036-.644a4.671,4.671,0,0,1,.366-1.52,2.964,2.964,0,0,1,.313-.581,3.7,3.7,0,0,1,.384-.456l.375-.286.375-.125.393.018a.983.983,0,0,1,.331.2l2.047,2.047-.063.063-3.5,3.5Zm-4.791-3.906.742.2a5.52,5.52,0,0,1-.107-1l.063-1.117.179-1.082a3.961,3.961,0,0,1,.268-.93l.018-.054h.054a4.623,4.623,0,0,0,3.146-1.287l.4-.5.4-.6,1.278,1.278.554-.554-3.736-3.736-.554.554,1.895,1.895-1.716,1.716-1.028-1.028c-.161-.152-.286-.161-.438-.009l-.25.366-.179.509-.206.724L9,125.664l-.17.939-.125.8-.08.822Zm-4.3-5.3.17,1.09,5.72-5.72.7.7.554-.554L9.835,116.77l-.554.554.322.322-.063.063-5.2,5.2Zm11.2.554.063.063.5-.5-.331-.331-.554.554.268.268.063-.063ZM2.273,120.846l.17,1.09,5.72-5.72.581.581.554-.554-1.627-1.627-.554.554.42.42-2.065,2.065.206.206-.813.813-.063-.063-.063.063-.143-.143-2.333,2.333Zm8.947-1.707.063.063.5-.5-.161-.161-.554.554.1.1.063-.063Zm-6.489-.751.018.018.063-.063.063.063.554-.554-.08-.08Zm-1.6-1.6,1.475,1.475.617-.617-1.475-1.475,1.689-1.689a1.264,1.264,0,0,0,.34-.554,1.305,1.305,0,0,0,0-.644,2.771,2.771,0,0,0-.617-1.242l-.143-.143a1.156,1.156,0,0,0-1.251-.241,1.512,1.512,0,0,0-.447.34,1.264,1.264,0,0,0-.429,1.126,1.809,1.809,0,0,0,.42,1.064l.59.67-.733.733-.867-.867-.107-.027-.134.018-.08.054-.17.286a3.162,3.162,0,0,0-.152,1.671l.054.42a.733.733,0,0,0,.179.42l.1.1.161.045.107-.036.885-.885Zm6.024.286.063.063.5-.5-.277-.286-.554.554.223.223.063-.063Zm-2.324-2.252.125.125.063-.063.063.063.474-.474-.188-.188Zm-.509-.509.384.384.554-.554-.706-.706-.232.885Zm-2.208.313-.036-.188-.089-.071-.277-.375-.206-.474A1.6,1.6,0,0,1,3.444,113a.7.7,0,0,1,.188-.411.729.729,0,0,1,.617-.277,1.425,1.425,0,0,1,.778.429l.17.17.072.268-.027.232-.089.17L4.1,114.634Zm.009-.375.063.045.84-.84.063-.116v-.152L5.053,113l-.143-.143a1.189,1.189,0,0,0-.67-.384c-.143-.027-.295.063-.474.232a.511.511,0,0,0-.143.3,1.191,1.191,0,0,0,.054.447l.188.447.259.34Z" transform="translate(0.957 -12.968)" fill="#fff"/>
      <path id="Path_66" data-name="Path 66" d="M60.943,138.57l65.9-66.973L110.722,56.017,44.164,121.791Z" transform="translate(-3.995 -5.98)" fill="#fff"/>
      <path id="Path_67" data-name="Path 67" d="M9.814,83.964l-.76-.733-2.78,2.878-2.19-2.118,2.5-2.592-.76-.733-2.5,2.592-1.966-1.9,2.673-2.771-.76-.733L0,81.247l6.435,6.221,3.379-3.5ZM11.1,82.632,4.666,76.42l-.554.572L10.547,83.2l.554-.572Zm1.7-2.851a1.161,1.161,0,0,1-1.082.313,3.056,3.056,0,0,1-1.5-.822l2.449-2.538-.206-.206a4.313,4.313,0,0,0-2.235-1.3,1.837,1.837,0,0,0-1.689.5,1.865,1.865,0,0,0-.465,1.752,4.4,4.4,0,0,0,1.4,2.226,4.147,4.147,0,0,0,2.217,1.269,1.913,1.913,0,0,0,1.743-.572,1.822,1.822,0,0,0,.545-1.332,2.925,2.925,0,0,0-.608-1.627l-.67.492c.474.787.5,1.394.089,1.823h0ZM8.92,77.368a1.1,1.1,0,0,1,1.394-1.3,2.65,2.65,0,0,1,1.126.644L9.609,78.61a2.426,2.426,0,0,1-.688-1.242Zm7.606-2.02a.965.965,0,0,1-.259.831,1.123,1.123,0,0,1-1.09.277,3.727,3.727,0,0,1-1.636-1.064,3.382,3.382,0,0,1-1.073-1.582,1.158,1.158,0,0,1,.259-1.117.874.874,0,0,1,.706-.259,2.021,2.021,0,0,1,.983.393l.429-.67a2.648,2.648,0,0,0-1.555-.608,1.62,1.62,0,0,0-1.225.536,1.842,1.842,0,0,0-.474,1.707,4.366,4.366,0,0,0,1.4,2.2,4.417,4.417,0,0,0,2.243,1.332,1.8,1.8,0,0,0,1.68-.5,1.7,1.7,0,0,0,.474-1.368,3.055,3.055,0,0,0-.8-1.716l-.644.465a2.364,2.364,0,0,1,.6,1.144h0Zm2.449-2.226a.389.389,0,0,1-.429.125,1.971,1.971,0,0,1-.536-.42L15.284,70.19l.563-.581-.617-.59-.563.581-1.627-1.573-.08,1.028,1.153,1.117-.411.42.617.59.411-.42,2.681,2.592a5.356,5.356,0,0,0,.992.822.912.912,0,0,0,.608.1,1.069,1.069,0,0,0,.6-.358,1.817,1.817,0,0,0,.34-.5l-.769-.6a2.356,2.356,0,0,1-.215.286h0Zm-3.531-6.06-.912-.876-.554.572.912.876.554-.572ZM20.978,72.4l-4.666-4.5-.554.572,4.666,4.5.554-.572Zm.572-1.609a1.9,1.9,0,0,0,2.208-2.279,4.4,4.4,0,0,0-1.439-2.252A4.1,4.1,0,0,0,20.1,65a1.9,1.9,0,0,0-2.2,2.279,4.231,4.231,0,0,0,1.385,2.208,4.255,4.255,0,0,0,2.261,1.3ZM18.8,67.312a1.148,1.148,0,0,1,.232-1.126,1.2,1.2,0,0,1,1.144-.295,3.4,3.4,0,0,1,1.627,1,3.45,3.45,0,0,1,1.064,1.591,1.163,1.163,0,0,1-.223,1.126,1.22,1.22,0,0,1-1.144.3A3.432,3.432,0,0,1,19.87,68.9a3.551,3.551,0,0,1-1.064-1.582h0Zm7.115-.009-2.547-2.458a2.994,2.994,0,0,1-.956-1.394,1.088,1.088,0,0,1,.286-.992.852.852,0,0,1,.5-.259,1.036,1.036,0,0,1,.6.107,3.56,3.56,0,0,1,.831.652L27.467,65.7l.554-.572L25.152,62.36a7,7,0,0,0-1.028-.858,1.844,1.844,0,0,0-.715-.277,1.623,1.623,0,0,0-.679.072,1.563,1.563,0,0,0-.608.384,1.455,1.455,0,0,0-.411.8,2.072,2.072,0,0,0,.134,1.01l-.661-.635-.5.518,4.666,4.5.554-.572h0Zm6.516-8.8a1.6,1.6,0,0,1-.438,1.269,1.761,1.761,0,0,1-1.725.465,5.348,5.348,0,0,1-2.386-1.5,6.184,6.184,0,0,1-1.251-1.6,2.555,2.555,0,0,1-.313-1.359,1.788,1.788,0,0,1,.518-1.073c.608-.626,1.457-.617,2.547.036l.393-.8a3.628,3.628,0,0,0-2.056-.661,2.249,2.249,0,0,0-1.6.706,2.516,2.516,0,0,0-.706,1.493,3.486,3.486,0,0,0,.34,1.877,6.745,6.745,0,0,0,1.511,2.029,7.363,7.363,0,0,0,2.154,1.511,3.466,3.466,0,0,0,1.877.349,2.443,2.443,0,0,0,1.43-.769A2.328,2.328,0,0,0,33.4,58.7a4.394,4.394,0,0,0-.921-2.288l-.822.42a3.157,3.157,0,0,1,.751,1.68h0Zm2.494-1.555a1.886,1.886,0,0,0,1.716-.545,1.909,1.909,0,0,0,.492-1.734,4.4,4.4,0,0,0-1.439-2.252,4.153,4.153,0,0,0-2.217-1.26,1.9,1.9,0,0,0-2.208,2.279,4.231,4.231,0,0,0,1.385,2.208,4.256,4.256,0,0,0,2.261,1.3h0Zm-2.753-3.477a1.143,1.143,0,0,1,.232-1.126,1.22,1.22,0,0,1,1.144-.3,3.475,3.475,0,0,1,1.627,1,3.451,3.451,0,0,1,1.064,1.591,1.163,1.163,0,0,1-.223,1.126,1.2,1.2,0,0,1-1.144.295,3.431,3.431,0,0,1-1.627-1.01,3.477,3.477,0,0,1-1.064-1.582h0Zm7.115-.018-2.422-2.342a3.689,3.689,0,0,1-1.09-1.493.984.984,0,0,1,.241-.965.7.7,0,0,1,.661-.206,2.172,2.172,0,0,1,.974.635l3.03,2.932.554-.572-2.708-2.619a2.492,2.492,0,0,1-.813-1.242,1,1,0,0,1,.259-.93.757.757,0,0,1,.429-.215.883.883,0,0,1,.527.1,3.622,3.622,0,0,1,.769.617l2.941,2.842.554-.572-3.2-3.093a2.805,2.805,0,0,0-1.466-.876,1.277,1.277,0,0,0-1.117.411,1.321,1.321,0,0,0-.366.778,2.34,2.34,0,0,0,.161,1.055,1.6,1.6,0,0,0-.947-.232,1.337,1.337,0,0,0-.8.4,1.387,1.387,0,0,0-.375.778,1.945,1.945,0,0,0,.134.983L34.564,49l-.5.518,4.666,4.5.554-.572h0Zm5.274-5.461-2.422-2.342a3.689,3.689,0,0,1-1.09-1.493.984.984,0,0,1,.241-.965.69.69,0,0,1,.661-.206,2.171,2.171,0,0,1,.974.635l3.03,2.932.554-.572-2.717-2.619a2.492,2.492,0,0,1-.813-1.242,1,1,0,0,1,.259-.93.757.757,0,0,1,.429-.215.871.871,0,0,1,.527.1,3.847,3.847,0,0,1,.778.617l2.941,2.842.554-.572-3.2-3.093a2.805,2.805,0,0,0-1.466-.876,1.277,1.277,0,0,0-1.117.411,1.321,1.321,0,0,0-.366.778,2.341,2.341,0,0,0,.161,1.055A1.618,1.618,0,0,0,41.527,42a1.29,1.29,0,0,0-.8.4,1.387,1.387,0,0,0-.375.778,1.946,1.946,0,0,0,.134.983l-.652-.626-.5.518L44,48.56l.554-.572h0ZM44.3,37.19l-.912-.876-.554.572.912.876.554-.572Zm5.533,5.336-4.666-4.5-.554.572,4.666,4.5.554-.572Zm2.109-1.975a1.836,1.836,0,0,0,.581-1.43,2.142,2.142,0,0,0-.715-1.421,2.081,2.081,0,0,0-.733-.483,1.388,1.388,0,0,0-.733-.071,6.025,6.025,0,0,0-1.3.536,4.35,4.35,0,0,1-.885.358.794.794,0,0,1-.831-.813,1.126,1.126,0,0,1,.366-.724.99.99,0,0,1,1.475,0l.438-.661a2.93,2.93,0,0,0-.947-.509,1.507,1.507,0,0,0-.84.045,1.915,1.915,0,0,0-.8.518,1.7,1.7,0,0,0-.536,1.305,1.9,1.9,0,0,0,.644,1.278,1.975,1.975,0,0,0,.742.474,1.548,1.548,0,0,0,.778.072A5.051,5.051,0,0,0,49.9,38.5a2.784,2.784,0,0,1,.831-.331.756.756,0,0,1,.6.241,1.011,1.011,0,0,1,.331.715,1.1,1.1,0,0,1-.349.778,1.065,1.065,0,0,1-.822.366,1.718,1.718,0,0,1-1-.429l-.429.688c1.126.84,2.083.849,2.869.036h0Zm3.164-3.28a1.867,1.867,0,0,0,.581-1.43,2.142,2.142,0,0,0-.715-1.421,2.079,2.079,0,0,0-.733-.483,1.387,1.387,0,0,0-.733-.072,6.337,6.337,0,0,0-1.3.527,4.348,4.348,0,0,1-.885.358.713.713,0,0,1-.572-.214.748.748,0,0,1-.25-.6,1.126,1.126,0,0,1,.366-.724.989.989,0,0,1,1.475,0l.438-.661a2.844,2.844,0,0,0-.947-.509,1.511,1.511,0,0,0-.84.045,1.915,1.915,0,0,0-.8.518,1.7,1.7,0,0,0-.536,1.3,1.9,1.9,0,0,0,.644,1.278,2.047,2.047,0,0,0,.742.474,1.547,1.547,0,0,0,.778.072,5.337,5.337,0,0,0,1.26-.518,2.783,2.783,0,0,1,.831-.331.756.756,0,0,1,.6.241,1.011,1.011,0,0,1,.331.715,1.1,1.1,0,0,1-.349.778,1.065,1.065,0,0,1-.822.366,1.74,1.74,0,0,1-1-.429l-.429.688q1.689,1.26,2.869.036h0Zm-3.066-8.1-.912-.876-.554.572.912.876.554-.572Zm5.524,5.336L52.9,30l-.554.572,4.666,4.5.554-.572Zm.572-1.609a1.886,1.886,0,0,0,1.716-.545,1.909,1.909,0,0,0,.492-1.734A4.4,4.4,0,0,0,58.9,28.368a4.153,4.153,0,0,0-2.217-1.26,1.9,1.9,0,0,0-2.208,2.279A4.231,4.231,0,0,0,55.864,31.6a4.255,4.255,0,0,0,2.261,1.3h0Zm-2.753-3.477a1.143,1.143,0,0,1,.232-1.126,1.22,1.22,0,0,1,1.144-.3,4.482,4.482,0,0,1,2.69,2.592,1.163,1.163,0,0,1-.223,1.126,1.22,1.22,0,0,1-1.144.3,3.431,3.431,0,0,1-1.627-1.01,3.477,3.477,0,0,1-1.064-1.582h0Zm7.115-.009-2.547-2.458a3.065,3.065,0,0,1-.956-1.394,1.088,1.088,0,0,1,.286-.992.853.853,0,0,1,.5-.259,1.036,1.036,0,0,1,.6.107,3.831,3.831,0,0,1,.831.652l2.842,2.744.554-.572-2.869-2.771a7,7,0,0,0-1.028-.858,2,2,0,0,0-.715-.277,1.624,1.624,0,0,0-.679.071,1.563,1.563,0,0,0-.608.384,1.514,1.514,0,0,0-.411.8,2.072,2.072,0,0,0,.134,1.01l-.661-.635-.5.518L61.933,30l.554-.572h0Zm4.442-5.622a1.886,1.886,0,0,0,1.716-.545,1.909,1.909,0,0,0,.492-1.734,4.4,4.4,0,0,0-1.439-2.252A4.184,4.184,0,0,0,65.49,18a1.9,1.9,0,0,0-2.208,2.279,4.231,4.231,0,0,0,1.385,2.208,4.255,4.255,0,0,0,2.261,1.3h0Zm-2.753-3.477a1.153,1.153,0,0,1,.232-1.126,1.2,1.2,0,0,1,1.144-.295,3.474,3.474,0,0,1,1.627,1,3.45,3.45,0,0,1,1.064,1.591,1.163,1.163,0,0,1-.223,1.126,1.22,1.22,0,0,1-1.144.3,3.432,3.432,0,0,1-1.627-1.01,3.477,3.477,0,0,1-1.064-1.582h0Zm7.267-.17L67.4,16.239l.643-.661-.617-.6-.644.661-.429-.42a1.535,1.535,0,0,1-.474-.67.605.605,0,0,1,.206-.518,1.83,1.83,0,0,1,.375-.295l-.6-.751a3.079,3.079,0,0,0-.608.456,1.289,1.289,0,0,0-.366.67,1.2,1.2,0,0,0,.116.715,3.413,3.413,0,0,0,.724.894l.5.483-.492.509.617.59.492-.509L70.9,20.7l.554-.572h0Zm3.6-3.727L68.619,10.2l-.6.626,6.435,6.212.6-.617Zm1.519-1.573-2.547-2.458a2.993,2.993,0,0,1-.956-1.394A1.081,1.081,0,0,1,73.356,10a.879.879,0,0,1,.5-.259,1.036,1.036,0,0,1,.6.107,3.56,3.56,0,0,1,.831.652l2.842,2.744.554-.572L75.814,9.9a7,7,0,0,0-1.028-.858,1.844,1.844,0,0,0-.715-.277,1.49,1.49,0,0,0-.679.072,1.563,1.563,0,0,0-.608.384,1.455,1.455,0,0,0-.411.8,2.072,2.072,0,0,0,.134,1.01l-.661-.635-.5.518,4.666,4.5.554-.572h0Zm5.613-5.81L75.751,2.814l-.563.581L77.5,5.621a1.778,1.778,0,0,0-.858-.054,1.3,1.3,0,0,0-.679.366,1.507,1.507,0,0,0-.429.983,2.444,2.444,0,0,0,.322,1.314A5.706,5.706,0,0,0,77.02,9.723a4.326,4.326,0,0,0,2.226,1.3,1.743,1.743,0,0,0,1.645-.42,1.242,1.242,0,0,0,.331-.706,1.734,1.734,0,0,0-.125-.9l.59.572.518-.536h0ZM76.475,7.578a1.049,1.049,0,0,1,.17-1.046,1.077,1.077,0,0,1,1.108-.241A4.017,4.017,0,0,1,79.443,7.4a3.254,3.254,0,0,1,1.01,1.5,1.055,1.055,0,0,1-.2,1.046,1.075,1.075,0,0,1-1.064.223,3.605,3.605,0,0,1-1.618-1.019,3.832,3.832,0,0,1-1.108-1.573h0Zm1.618-5.354-.912-.876-.554.572.912.876.554-.572ZM83.626,7.56l-4.666-4.5-.554.572,4.666,4.5.554-.572Zm3.1-3.209.581-.6a2.978,2.978,0,0,1-.7-.393c-.215-.161-.7-.6-1.43-1.3L84.126,1.035A6.145,6.145,0,0,0,83.072.177a1.317,1.317,0,0,0-.93-.152,2,2,0,0,0-1.037.617,2.058,2.058,0,0,0-.679,1.385,2.588,2.588,0,0,0,.617,1.546l.652-.465a1.808,1.808,0,0,1-.42-.974,1.18,1.18,0,0,1,.393-.787,1.061,1.061,0,0,1,.921-.384,1.585,1.585,0,0,1,.822.5l.2.2a5.628,5.628,0,0,1-.715,1.3A2.7,2.7,0,0,0,82.4,3.985a1.659,1.659,0,0,0,.1.876,2.31,2.31,0,0,0,.572.84,1.956,1.956,0,0,0,1.278.617,1.485,1.485,0,0,0,1.18-.5A1.872,1.872,0,0,0,85.986,5a3.06,3.06,0,0,0,.072-1.09,3.027,3.027,0,0,0,.688.438h0ZM84.52,2.537a3.267,3.267,0,0,1,.751.974,1.523,1.523,0,0,1,.116.84,1.323,1.323,0,0,1-.358.733.9.9,0,0,1-.688.313,1,1,0,0,1-.706-.331,1.284,1.284,0,0,1-.3-.447.786.786,0,0,1-.036-.474,2.329,2.329,0,0,1,.331-.661,4.285,4.285,0,0,0,.608-1.233l.295.277h0Z" transform="translate(89.534 84.313) rotate(1)" fill="#fff" stroke="#fff" stroke-width="0.2"/>
      <g id="Ellipse_1" data-name="Ellipse 1" transform="translate(117.391 30.567)">
        <circle id="Ellipse_4" data-name="Ellipse 4" cx="12.28" cy="12.28" r="12.28" transform="translate(0 0)" fill="#bcbec0"/>
      </g>
      <g id="Ellipse_2" data-name="Ellipse 2" transform="translate(141.074 54.25)">
        <circle id="Ellipse_5" data-name="Ellipse 5" cx="12.28" cy="12.28" r="12.28" transform="translate(0 0)" fill="#bcbec0"/>
      </g>
      <g id="Ellipse_3" data-name="Ellipse 3" transform="translate(91.903 5.076)">
        <circle id="Ellipse_6" data-name="Ellipse 6" cx="12.28" cy="12.28" r="12.28" transform="translate(0 24.243) rotate(-80.78)" fill="#bcbec0"/>
      </g>
      <g id="Rectangle_5" data-name="Rectangle 5" transform="translate(15.988 24.162)">
        <rect id="Rectangle_8" data-name="Rectangle 8" width="95.645" height="24.562" transform="translate(0 67.632) rotate(-45)" fill="#eb7f29"/>
        <path id="Path_22" data-name="Path 22" d="M17.368,131.436,0,114.068,67.627,46.441,85,63.809ZM4.2,114.068l13.159,13.157L80.786,63.8,67.627,50.643,4.2,114.068Z" transform="translate(0.002 -46.436)"/>
      </g>
      <g id="Rectangle_6" data-name="Rectangle 6" transform="translate(39.672 47.846)">
        <rect id="Rectangle_9" data-name="Rectangle 9" width="95.645" height="24.562" transform="translate(0 67.632) rotate(-45)" fill="#fff"/>
        <path id="Path_23" data-name="Path 23" d="M81.008,195.067,63.64,177.7l67.627-67.627,17.368,17.368ZM67.849,177.7l13.159,13.157,63.429-63.429-13.159-13.159L67.849,177.7h0Z" transform="translate(-63.64 -110.067)"/>
      </g>
      <g id="Rectangle_7" data-name="Rectangle 7" transform="translate(63.357 71.53)">
        <rect id="Rectangle_10" data-name="Rectangle 10" width="95.645" height="24.562" transform="translate(0 67.632) rotate(-45)" fill="#00a14b"/>
        <path id="Path_24" data-name="Path 24" d="M144.648,258.707,127.28,241.339l67.627-67.627,17.368,17.368Zm-13.159-17.368L144.648,254.5l63.429-63.429-13.159-13.159-63.429,63.429h0Z" transform="translate(-127.28 -173.707)"/>
      </g>
    </g>
  </g>
</svg>
